<svg width="56" height="57" viewBox="0 0 56 57" fill="none" xmlns="http://www.w3.org/2000/svg">
<rect y="0.5" width="56" height="56" rx="10" fill="#28C6BC"/>
<g clip-path="url(#clip0_201_114)">
<path d="M24.25 27C24.0511 27 23.8603 27.079 23.7197 27.2197C23.579 27.3603 23.5 27.5511 23.5 27.75C23.5 27.9489 23.579 28.1397 23.7197 28.2803C23.8603 28.421 24.0511 28.5 24.25 28.5H31.75C31.9489 28.5 32.1397 28.421 32.2803 28.2803C32.421 28.1397 32.5 27.9489 32.5 27.75C32.5 27.5511 32.421 27.3603 32.2803 27.2197C32.1397 27.079 31.9489 27 31.75 27H24.25ZM23.5 30.75C23.5 30.5511 23.579 30.3603 23.7197 30.2197C23.8603 30.079 24.0511 30 24.25 30H31.75C31.9489 30 32.1397 30.079 32.2803 30.2197C32.421 30.3603 32.5 30.5511 32.5 30.75C32.5 30.9489 32.421 31.1397 32.2803 31.2803C32.1397 31.421 31.9489 31.5 31.75 31.5H24.25C24.0511 31.5 23.8603 31.421 23.7197 31.2803C23.579 31.1397 23.5 30.9489 23.5 30.75ZM23.5 33.75C23.5 33.5511 23.579 33.3603 23.7197 33.2197C23.8603 33.079 24.0511 33 24.25 33H27.25C27.4489 33 27.6397 33.079 27.7803 33.2197C27.921 33.3603 28 33.5511 28 33.75C28 33.9489 27.921 34.1397 27.7803 34.2803C27.6397 34.421 27.4489 34.5 27.25 34.5H24.25C24.0511 34.5 23.8603 34.421 23.7197 34.2803C23.579 34.1397 23.5 33.9489 23.5 33.75Z" fill="white"/>
<path d="M30.25 16.5H22C21.2044 16.5 20.4413 16.8161 19.8787 17.3787C19.3161 17.9413 19 18.7044 19 19.5V37.5C19 38.2956 19.3161 39.0587 19.8787 39.6213C20.4413 40.1839 21.2044 40.5 22 40.5H34C34.7956 40.5 35.5587 40.1839 36.1213 39.6213C36.6839 39.0587 37 38.2956 37 37.5V23.25L30.25 16.5ZM30.25 18V21C30.25 21.5967 30.4871 22.169 30.909 22.591C31.331 23.0129 31.9033 23.25 32.5 23.25H35.5V37.5C35.5 37.8978 35.342 38.2794 35.0607 38.5607C34.7794 38.842 34.3978 39 34 39H22C21.6022 39 21.2206 38.842 20.9393 38.5607C20.658 38.2794 20.5 37.8978 20.5 37.5V19.5C20.5 19.1022 20.658 18.7206 20.9393 18.4393C21.2206 18.158 21.6022 18 22 18H30.25Z" fill="white"/>
</g>
<defs>
<clipPath id="clip0_201_114">
<rect width="24" height="24" fill="white" transform="translate(16 16.5)"/>
</clipPath>
</defs>
</svg>
