<svg width="28" height="28" viewBox="0 0 28 28" fill="none" xmlns="http://www.w3.org/2000/svg">
<g clip-path="url(#clip0_201_187)">
<path d="M14.7774 2.10547C11.4606 2.10547 11.0435 2.12075 9.74032 2.1788C8.43712 2.23991 7.54948 2.44464 6.77184 2.74714C5.95615 3.05394 5.21732 3.5352 4.60698 4.15727C3.98529 4.76792 3.50409 5.50667 3.19684 6.32214C2.89434 7.09825 2.68809 7.98741 2.62851 9.28602C2.57045 10.5923 2.55518 11.0078 2.55518 14.3292C2.55518 17.6476 2.57045 18.0631 2.62851 19.3663C2.68962 20.668 2.89434 21.5556 3.19684 22.3332C3.51004 23.1369 3.92712 23.8182 4.60698 24.4981C5.28531 25.178 5.9667 25.5966 6.77032 25.9082C7.54948 26.2107 8.43559 26.417 9.73726 26.4766C11.042 26.5346 11.4575 26.5499 14.7774 26.5499C18.0973 26.5499 18.5113 26.5346 19.816 26.4766C21.1161 26.4155 22.0068 26.2107 22.7845 25.9082C23.5996 25.6013 24.338 25.12 24.9478 24.4981C25.6277 23.8182 26.0448 23.1369 26.358 22.3332C26.6589 21.5556 26.8652 20.668 26.9263 19.3663C26.9843 18.0631 26.9996 17.6476 26.9996 14.3277C26.9996 11.0078 26.9843 10.5923 26.9263 9.28755C26.8652 7.98741 26.6589 7.09825 26.358 6.32214C26.0508 5.50665 25.5695 4.76789 24.9478 4.15727C24.3377 3.53497 23.5988 3.05368 22.783 2.74714C22.0038 2.44464 21.1146 2.23839 19.8145 2.1788C18.5098 2.12075 18.0957 2.10547 14.7743 2.10547H14.7789H14.7774ZM13.682 4.30852H14.7789C18.0423 4.30852 18.4288 4.31922 19.7167 4.3788C20.9084 4.43227 21.5561 4.63241 21.987 4.79894C22.5568 5.02047 22.9648 5.2863 23.3925 5.71408C23.8203 6.14186 24.0846 6.54825 24.3062 7.11964C24.4742 7.54894 24.6728 8.19672 24.7263 9.38839C24.7859 10.6763 24.7981 11.0628 24.7981 14.3246C24.7981 17.5864 24.7859 17.9745 24.7263 19.2624C24.6728 20.4541 24.4727 21.1003 24.3062 21.5312C24.1102 22.0619 23.7974 22.5417 23.391 22.9352C22.9632 23.363 22.5568 23.6273 21.9855 23.8488C21.5577 24.0169 20.9099 24.2155 19.7167 24.2705C18.4288 24.3285 18.0423 24.3423 14.7789 24.3423C11.5156 24.3423 11.1275 24.3285 9.83962 24.2705C8.64795 24.2155 8.0017 24.0169 7.57087 23.8488C7.03997 23.6531 6.55967 23.3409 6.16531 22.9352C5.75855 22.5411 5.44531 22.0608 5.24865 21.5296C5.08212 21.1003 4.88198 20.4526 4.82851 19.2609C4.77045 17.973 4.75823 17.5864 4.75823 14.3216C4.75823 11.0582 4.77045 10.6732 4.82851 9.38533C4.88351 8.19366 5.08212 7.54589 5.25018 7.11505C5.4717 6.54519 5.73754 6.13727 6.16531 5.7095C6.59309 5.28172 6.99948 5.01741 7.57087 4.79589C8.0017 4.62783 8.64795 4.42922 9.83962 4.37422C10.9671 4.32227 11.4041 4.307 13.682 4.30547V4.30852ZM21.3025 6.33741C21.1099 6.33741 20.9192 6.37535 20.7413 6.44906C20.5633 6.52276 20.4016 6.6308 20.2654 6.76699C20.1293 6.90318 20.0212 7.06487 19.9475 7.24281C19.8738 7.42076 19.8359 7.61147 19.8359 7.80408C19.8359 7.99669 19.8738 8.18741 19.9475 8.36535C20.0212 8.54329 20.1293 8.70498 20.2654 8.84117C20.4016 8.97736 20.5633 9.0854 20.7413 9.1591C20.9192 9.23281 21.1099 9.27075 21.3025 9.27075C21.6915 9.27075 22.0646 9.11622 22.3396 8.84117C22.6147 8.56612 22.7692 8.19306 22.7692 7.80408C22.7692 7.4151 22.6147 7.04204 22.3396 6.76699C22.0646 6.49194 21.6915 6.33741 21.3025 6.33741ZM14.7789 8.05158C13.9464 8.03859 13.1196 8.19135 12.3467 8.50096C11.5737 8.81057 10.8701 9.27085 10.2768 9.855C9.68346 10.4392 9.21226 11.1355 8.89063 11.9035C8.56899 12.6715 8.40336 13.4958 8.40336 14.3285C8.40336 15.1611 8.56899 15.9854 8.89063 16.7534C9.21226 17.5214 9.68346 18.2178 10.2768 18.8019C10.8701 19.3861 11.5737 19.8463 12.3467 20.1559C13.1196 20.4656 13.9464 20.6183 14.7789 20.6053C16.4267 20.5796 17.9983 19.907 19.1544 18.7327C20.3106 17.5583 20.9586 15.9764 20.9586 14.3285C20.9586 12.6805 20.3106 11.0986 19.1544 9.92425C17.9983 8.74991 16.4267 8.07729 14.7789 8.05158ZM14.7789 10.2531C15.8596 10.2531 16.896 10.6824 17.6601 11.4465C18.4242 12.2107 18.8535 13.247 18.8535 14.3277C18.8535 15.4083 18.4242 16.4447 17.6601 17.2089C16.896 17.973 15.8596 18.4023 14.7789 18.4023C13.6983 18.4023 12.6619 17.973 11.8978 17.2089C11.1336 16.4447 10.7043 15.4083 10.7043 14.3277C10.7043 13.247 11.1336 12.2107 11.8978 11.4465C12.6619 10.6824 13.6983 10.2531 14.7789 10.2531Z" fill="#110229"/>
</g>
<defs>
<clipPath id="clip0_201_187">
<rect width="26.6667" height="26.6667" fill="white" transform="translate(0.888672 0.994141)"/>
</clipPath>
</defs>
</svg>
