<svg width="49" height="48" viewBox="0 0 49 48" fill="none" xmlns="http://www.w3.org/2000/svg">
<path d="M32.1598 12.244C31.8283 12.244 31.5104 12.3757 31.276 12.6101C31.0415 12.8445 30.9098 13.1625 30.9098 13.494C30.9098 13.8255 31.0415 14.1435 31.276 14.3779C31.5104 14.6123 31.8283 14.744 32.1598 14.744C33.4298 14.744 34.8978 15.977 35.0548 17.697C35.0849 18.0272 35.245 18.3319 35.4997 18.5441C35.7545 18.7563 36.0831 18.8586 36.4133 18.8285C36.7435 18.7984 37.0482 18.6384 37.2604 18.3836C37.4726 18.1288 37.5749 17.8002 37.5448 17.47C37.2808 14.59 34.8478 12.244 32.1588 12.244H32.1598ZM21.7698 8.22799C19.4418 6.06399 16.6378 5.74899 14.1888 6.28499C11.7818 6.81099 9.61884 8.16999 8.32084 9.54499C6.72084 11.238 5.21784 13.408 5.09084 16.543V16.551C5.03684 18.094 5.23784 20.373 6.46684 22.066L6.60484 22.258C7.83984 23.968 8.56984 24.98 8.93184 25.994L8.93484 26.002C9.34884 27.136 9.35984 28.265 9.37484 29.867L9.37884 30.297C9.40084 32.517 10.0338 36.081 11.7328 38.683C12.5528 39.941 13.6778 41.056 15.1828 41.615L15.2408 41.637L15.3008 41.652C16.4978 41.968 17.6308 41.902 18.5478 41.224C19.4038 40.591 19.8198 39.602 20.0608 38.682C20.3058 37.741 20.4238 36.639 20.5168 35.548C20.5438 35.228 20.5688 34.91 20.5938 34.591C20.6578 33.781 20.7208 32.969 20.8198 32.149C20.8886 31.5519 20.983 30.958 21.1028 30.369C21.4528 28.696 21.8548 27.727 22.2418 27.152C22.5838 26.642 22.9288 26.419 23.3118 26.281C24.4468 25.994 25.1658 26.142 25.6538 26.419C26.1778 26.716 26.6328 27.271 27.0108 28.134C27.7878 29.91 28.0088 32.419 28.1938 34.685V34.688C28.3838 36.942 28.8578 38.999 29.7458 40.324C30.2028 41.006 30.8498 41.613 31.7328 41.826C32.6348 42.044 33.5198 41.789 34.3038 41.286L34.3048 41.285C37.1748 39.44 38.8318 35.498 39.2848 30.475C39.4748 28.347 39.7238 27.22 40.1148 26.231C40.4318 25.431 40.8418 24.709 41.4678 23.609L41.4698 23.607C41.6608 23.27 41.8738 22.897 42.1098 22.476C42.7538 21.332 43.7908 19.268 43.9068 16.859C44.0268 14.361 43.1478 11.607 40.1838 9.22999C37.3538 6.93699 34.7238 6.10299 32.3768 6.22799C30.0488 6.35199 28.1848 7.40899 26.8538 8.55599L26.8228 8.58299L26.7938 8.61099C25.4868 9.89299 24.8728 10.136 24.4608 10.118C24.0008 10.098 23.2738 9.73999 21.8058 8.26299L21.7888 8.24499L21.7698 8.22799ZM10.1378 11.262C11.1098 10.233 12.8318 9.14099 14.7228 8.72699C16.5648 8.32399 18.4628 8.57699 20.0508 10.043C21.4668 11.466 22.8148 12.549 24.3518 12.616C25.9328 12.686 27.2418 11.67 28.5138 10.426C29.5588 9.53399 30.9038 8.80999 32.5098 8.72399C34.1098 8.63899 36.1518 9.17999 38.6118 11.174L38.6178 11.179C40.9408 13.041 41.4918 15.017 41.4088 16.739C41.3228 18.549 40.5258 20.193 39.9298 21.249L39.9278 21.253C39.7278 21.613 39.5358 21.95 39.3538 22.268C38.7018 23.412 38.1778 24.333 37.7908 25.311C37.2728 26.619 36.9958 28.017 36.7938 30.251C36.3658 35.009 34.8438 37.967 32.9538 39.181C32.5538 39.438 32.3678 39.407 32.3198 39.396C32.2528 39.38 32.0708 39.303 31.8228 38.933C31.2998 38.153 30.8658 36.626 30.6848 34.48V34.479L30.6768 34.384C30.5028 32.248 30.2648 29.334 29.3008 27.131C28.7998 25.987 28.0488 24.903 26.8878 24.244C25.6978 23.57 24.2668 23.448 22.6328 23.874L22.5888 23.886L22.5458 23.901C21.6558 24.204 20.8418 24.753 20.1658 25.758C19.5228 26.715 19.0358 28.041 18.6558 29.858C18.5209 30.5174 18.4144 31.1824 18.3368 31.851C18.2328 32.727 18.1628 33.617 18.0968 34.445C18.0738 34.752 18.0498 35.051 18.0258 35.336C17.9328 36.429 17.8278 37.338 17.6418 38.05C17.4498 38.784 17.2258 39.092 17.0618 39.213C16.9618 39.287 16.7058 39.426 15.9978 39.25C15.1678 38.925 14.4428 38.262 13.8258 37.317C12.4728 35.244 11.8978 32.199 11.8788 30.271V30.269L11.8748 29.786C11.8648 28.272 11.8528 26.708 11.2848 25.149C10.7978 23.789 9.86184 22.494 8.75584 20.966L8.49284 20.602L8.49084 20.599C7.76084 19.594 7.54084 18.016 7.58784 16.64C7.68184 14.358 8.74483 12.737 10.1378 11.262ZM23.3118 26.281L23.2648 26.293L23.3528 26.267C23.3391 26.2715 23.3255 26.2762 23.3118 26.281Z" fill="#28C6BC"/>
</svg>
