<svg width="28" height="23" viewBox="0 0 28 23" fill="none" xmlns="http://www.w3.org/2000/svg">
<g clip-path="url(#clip0_201_190)">
<path d="M10.1229 21.3276C19.3477 21.3276 24.3939 13.6311 24.3939 6.9684C24.3939 6.75303 24.3939 6.53458 24.3848 6.31921C25.3672 5.60307 26.2151 4.71645 26.8888 3.70088C25.9711 4.10833 24.9986 4.37686 24.0028 4.49776C25.0517 3.86647 25.8372 2.87319 26.2135 1.70253C25.2281 2.29038 24.1495 2.70305 23.025 2.92246C22.2691 2.11177 21.2687 1.57472 20.1789 1.39448C19.0891 1.21424 17.9707 1.40089 16.9969 1.9255C16.0232 2.45011 15.2483 3.28341 14.7925 4.29633C14.3367 5.30925 14.2253 6.44525 14.4756 7.52837C12.4814 7.42769 10.5306 6.90605 8.74954 5.99729C6.9685 5.08853 5.39705 3.81295 4.13711 2.25327C3.49749 3.36565 3.3023 4.68145 3.59116 5.93348C3.88002 7.18552 4.63128 8.27992 5.69239 8.99445C4.89724 8.96725 4.11958 8.75225 3.42211 8.36679V8.43602C3.42348 9.60131 3.82439 10.7304 4.55706 11.6324C5.28973 12.5344 6.30923 13.154 7.44322 13.3865C7.01279 13.5059 6.56816 13.5654 6.1217 13.5634C5.80695 13.5644 5.49283 13.535 5.18364 13.4757C5.50415 14.4789 6.12823 15.3559 6.96846 15.984C7.8087 16.6122 8.82301 16.9599 9.86934 16.9786C8.09185 18.3844 5.8962 19.1468 3.636 19.1431C3.23774 19.1448 2.83976 19.1217 2.44434 19.0739C4.73832 20.5465 7.40243 21.3285 10.1229 21.3276Z" fill="#110229"/>
</g>
<defs>
<clipPath id="clip0_201_190">
<rect width="26.6667" height="21.9608" fill="white" transform="translate(0.777832 0.347168)"/>
</clipPath>
</defs>
</svg>
