<svg width="21" height="33" viewBox="0 0 21 33" fill="none" xmlns="http://www.w3.org/2000/svg">
<path d="M15.0852 17.7969C15.2976 17.3584 15.8862 16.9522 16.3938 16.8978C16.9014 16.8434 17.364 16.4049 17.4216 15.9257C17.4828 15.4498 17.9112 14.8923 18.3738 14.6901C18.6068 14.5781 18.7965 14.3995 18.9157 14.1798C19.035 13.96 19.0778 13.7104 19.038 13.4663C18.9336 12.9939 19.1604 12.3395 19.5348 12.0149C19.7204 11.84 19.8426 11.6139 19.8837 11.3693C19.9247 11.1247 19.8826 10.8741 19.7634 10.6535C19.6399 10.4163 19.5757 10.1555 19.5757 9.89126C19.5757 9.62696 19.6399 9.36619 19.7634 9.12899C19.8829 8.90846 19.9252 8.65779 19.8841 8.41312C19.843 8.16844 19.7207 7.94241 19.5348 7.76761C19.1604 7.43959 18.9354 6.78695 19.038 6.31616C19.0783 6.07163 19.0358 5.82132 18.9165 5.60096C18.7972 5.38059 18.6073 5.20143 18.3738 5.08906C18.1264 4.96447 17.9123 4.78855 17.7473 4.57454C17.5824 4.36052 17.471 4.11398 17.4216 3.85346C17.3805 3.60985 17.259 3.3847 17.0745 3.21013C16.8899 3.03556 16.6517 2.92047 16.3938 2.88129C16.1177 2.83549 15.8564 2.73086 15.6297 2.57536C15.4029 2.41985 15.2167 2.21758 15.0852 1.9839C14.9664 1.76348 14.7765 1.58442 14.5429 1.4726C14.3093 1.36078 14.0441 1.322 13.7856 1.36185C13.5082 1.39857 13.2255 1.3751 12.9592 1.29323C12.6928 1.21135 12.4497 1.07324 12.2484 0.889368C11.901 0.532453 11.253 0.437276 10.8084 0.673519C10.3638 0.909763 9.63476 0.909763 9.19196 0.673519C8.95904 0.559167 8.69352 0.518103 8.43413 0.556323C8.17475 0.594543 7.9351 0.710045 7.75016 0.885968C7.54895 1.07005 7.30588 1.20831 7.03947 1.29019C6.77307 1.37208 6.49037 1.39542 6.21296 1.35845C5.9548 1.31924 5.69012 1.35853 5.45716 1.47065C5.22421 1.58277 5.03503 1.76192 4.91696 1.98221C4.70276 2.4173 4.11416 2.8235 3.60656 2.87789C3.34816 2.91709 3.10948 3.03236 2.92458 3.20725C2.73969 3.38214 2.61802 3.6077 2.57696 3.85176C2.52813 4.11228 2.41698 4.35884 2.25197 4.57267C2.08696 4.7865 1.87244 4.96195 1.62476 5.08566C1.39205 5.1986 1.20307 5.37805 1.08477 5.59841C0.966462 5.81877 0.924882 6.06878 0.965959 6.31276C1.06496 6.78355 0.83996 7.43789 0.46556 7.76422C0.0911597 8.09054 -0.0132401 8.70239 0.23696 9.12559C0.48716 9.54369 0.48716 10.232 0.23696 10.6501C0.117554 10.871 0.0753555 11.1219 0.116429 11.3668C0.157502 11.6117 0.279732 11.838 0.46556 12.0132C0.84176 12.3361 1.06496 12.9905 0.965959 13.4646C0.924843 13.7082 0.966441 13.9577 1.08479 14.1776C1.20314 14.3974 1.39216 14.5762 1.62476 14.6884C2.08916 14.8906 2.51576 15.4481 2.57516 15.924C2.63636 16.4032 3.09716 16.8417 3.60476 16.8961C4.11236 16.9505 4.70096 17.3584 4.91516 17.7952C5.03415 18.0147 5.22355 18.193 5.45631 18.3047C5.68907 18.4164 5.95327 18.4558 6.21116 18.4173C6.71156 18.3238 7.40456 18.5345 7.74836 18.8897C7.93378 19.0648 8.17313 19.18 8.43213 19.2188C8.69113 19.2576 8.95648 19.2179 9.19016 19.1056C9.63296 18.8693 10.362 18.8693 10.8066 19.1056C11.2512 19.3418 11.8992 19.2433 12.2466 18.8897C12.594 18.5328 13.2834 18.3238 13.7838 18.4173C14.0422 18.4566 14.3073 18.4177 14.541 18.3063C14.7747 18.1949 14.9652 18.0166 15.0852 17.7969ZM10.0002 15.6656C8.37704 15.6656 6.82039 15.0568 5.67267 13.9731C4.52494 12.8894 3.88016 11.4196 3.88016 9.88701C3.88016 8.35442 4.52494 6.88461 5.67267 5.80091C6.82039 4.71721 8.37704 4.10839 10.0002 4.10839C11.6233 4.10839 13.1799 4.71721 14.3277 5.80091C15.4754 6.88461 16.1202 8.35442 16.1202 9.88701C16.1202 11.4196 15.4754 12.8894 14.3277 13.9731C13.1799 15.0568 11.6233 15.6656 10.0002 15.6656ZM2.75516 19.0818L0.517759 31.0622L6.14816 30.2736L11.154 32.8332L13.3824 20.9004C11.5831 21.3971 9.68596 21.4914 7.84137 21.1758C5.99678 20.8601 4.25539 20.1432 2.75516 19.0818ZM17.13 19.1634C16.5678 19.5492 15.9716 19.8886 15.348 20.178L14.0016 27.3775L20.0658 24.2707L17.13 19.1634Z" fill="black"/>
</svg>
