<svg width="27" height="28" viewBox="0 0 27 28" fill="none" xmlns="http://www.w3.org/2000/svg">
<g clip-path="url(#clip0_201_184)">
<g clip-path="url(#clip1_201_184)">
<path fill-rule="evenodd" clip-rule="evenodd" d="M26.1112 13.8502C26.1112 6.74981 20.3907 0.994141 13.335 0.994141C6.2762 0.995738 0.555664 6.74981 0.555664 13.8518C0.555664 20.267 5.22855 25.5851 11.3356 26.5497V17.5664H8.09361V13.8518H11.3388V11.0171C11.3388 7.79586 13.2472 6.01678 16.165 6.01678C17.564 6.01678 19.0252 6.26751 19.0252 6.26751V9.42961H17.4138C15.828 9.42961 15.3329 10.4214 15.3329 11.4387V13.8502H18.8751L18.3098 17.5648H15.3313V26.5481C21.4383 25.5835 26.1112 20.2654 26.1112 13.8502Z" fill="#110229"/>
</g>
</g>
<defs>
<clipPath id="clip0_201_184">
<rect width="26.6667" height="26.6667" fill="white" transform="translate(0 0.994141)"/>
</clipPath>
<clipPath id="clip1_201_184">
<rect width="26.6667" height="26.6667" fill="white" transform="translate(0 0.994141)"/>
</clipPath>
</defs>
</svg>
