<svg width="56" height="57" viewBox="0 0 56 57" fill="none" xmlns="http://www.w3.org/2000/svg">
<rect y="0.5" width="56" height="56" rx="10" fill="#28C6BC"/>
<path d="M37 37.5L32.514 33.006L37 37.5ZM35 27C35 29.2543 34.1045 31.4163 32.5104 33.0104C30.9163 34.6045 28.7543 35.5 26.5 35.5C24.2457 35.5 22.0837 34.6045 20.4896 33.0104C18.8955 31.4163 18 29.2543 18 27C18 24.7457 18.8955 22.5837 20.4896 20.9896C22.0837 19.3955 24.2457 18.5 26.5 18.5C28.7543 18.5 30.9163 19.3955 32.5104 20.9896C34.1045 22.5837 35 24.7457 35 27V27Z" stroke="white" stroke-width="2" stroke-linecap="round"/>
</svg>
